<svg width="257" height="256" viewBox="0 0 257 256" fill="none" xmlns="http://www.w3.org/2000/svg">
<g clip-path="url(#clip0_58_388)">
<path d="M256.679 0H0.678589V256H256.679V0Z" fill="#0091FF"/>
<path d="M25.6386 16H16.6786V24.96H25.6386V16Z" fill="black"/>
<path d="M34.5986 16H25.6386V24.96H34.5986V16Z" fill="black"/>
<path d="M43.5586 16H34.5986V24.96H43.5586V16Z" fill="black"/>
<path d="M52.5186 16H43.5586V24.96H52.5186V16Z" fill="black"/>
<path d="M61.4786 16H52.5186V24.96H61.4786V16Z" fill="black"/>
<path d="M70.4386 16H61.4786V24.96H70.4386V16Z" fill="black"/>
<path d="M79.3986 16H70.4386V24.96H79.3986V16Z" fill="black"/>
<path d="M97.3186 16H88.3586V24.96H97.3186V16Z" fill="black"/>
<path d="M133.159 16H124.199V24.96H133.159V16Z" fill="black"/>
<path d="M151.079 16H142.119V24.96H151.079V16Z" fill="black"/>
<path d="M168.999 16H160.039V24.96H168.999V16Z" fill="black"/>
<path d="M186.919 16H177.959V24.96H186.919V16Z" fill="black"/>
<path d="M195.879 16H186.919V24.96H195.879V16Z" fill="black"/>
<path d="M204.839 16H195.879V24.96H204.839V16Z" fill="black"/>
<path d="M213.799 16H204.839V24.96H213.799V16Z" fill="black"/>
<path d="M222.759 16H213.799V24.96H222.759V16Z" fill="black"/>
<path d="M231.719 16H222.759V24.96H231.719V16Z" fill="black"/>
<path d="M240.679 16H231.719V24.96H240.679V16Z" fill="black"/>
<path d="M25.6386 24.96H16.6786V33.92H25.6386V24.96Z" fill="black"/>
<path d="M79.3986 24.96H70.4386L70.4386 33.92H79.3986V24.96Z" fill="black"/>
<path d="M124.199 24.96H115.239V33.92H124.199V24.96Z" fill="black"/>
<path d="M151.079 24.96H142.119V33.92H151.079V24.96Z" fill="black"/>
<path d="M168.999 24.96H160.039V33.92H168.999V24.96Z" fill="black"/>
<path d="M186.919 24.96H177.959V33.92H186.919V24.96Z" fill="black"/>
<path d="M240.679 24.96H231.719V33.92H240.679V24.96Z" fill="black"/>
<path d="M25.6386 33.92H16.6786V42.88H25.6386V33.92Z" fill="black"/>
<path d="M43.5586 33.92H34.5986V42.88H43.5586V33.92Z" fill="black"/>
<path d="M52.5186 33.92H43.5586V42.88H52.5186V33.92Z" fill="black"/>
<path d="M61.4786 33.92H52.5186V42.88H61.4786V33.92Z" fill="black"/>
<path d="M79.3986 33.92H70.4386V42.88H79.3986V33.92Z" fill="black"/>
<path d="M97.3186 33.92H88.3586V42.88H97.3186V33.92Z" fill="black"/>
<path d="M106.279 33.92H97.3186V42.88H106.279V33.92Z" fill="black"/>
<path d="M168.999 33.92H160.039V42.88H168.999V33.92Z" fill="black"/>
<path d="M186.919 33.92H177.959V42.88H186.919V33.92Z" fill="black"/>
<path d="M204.839 33.92H195.879V42.88H204.839V33.92Z" fill="black"/>
<path d="M213.799 33.92H204.839V42.88H213.799V33.92Z" fill="black"/>
<path d="M222.759 33.92H213.799V42.88H222.759V33.92Z" fill="black"/>
<path d="M240.679 33.92H231.719V42.88H240.679V33.92Z" fill="black"/>
<path d="M25.6386 42.88H16.6786V51.84H25.6386V42.88Z" fill="black"/>
<path d="M43.5586 42.88H34.5986V51.84H43.5586V42.88Z" fill="black"/>
<path d="M52.5186 42.88H43.5586V51.84H52.5186V42.88Z" fill="black"/>
<path d="M61.4786 42.88H52.5186V51.84H61.4786V42.88Z" fill="black"/>
<path d="M79.3986 42.88H70.4386V51.84H79.3986V42.88Z" fill="black"/>
<path d="M124.199 42.88H115.239V51.84H124.199V42.88Z" fill="black"/>
<path d="M133.159 42.88H124.199V51.84H133.159V42.88Z" fill="black"/>
<path d="M160.039 42.88H151.079V51.84H160.039V42.88Z" fill="black"/>
<path d="M168.999 42.88H160.039V51.84H168.999V42.88Z" fill="black"/>
<path d="M186.919 42.88H177.959V51.84H186.919V42.88Z" fill="black"/>
<path d="M204.839 42.88H195.879V51.84H204.839V42.88Z" fill="black"/>
<path d="M213.799 42.88H204.839V51.84H213.799V42.88Z" fill="black"/>
<path d="M222.759 42.88H213.799V51.84H222.759V42.88Z" fill="black"/>
<path d="M240.679 42.88H231.719V51.84H240.679V42.88Z" fill="black"/>
<path d="M25.6386 51.84H16.6786V60.8H25.6386V51.84Z" fill="black"/>
<path d="M43.5586 51.84H34.5986V60.8H43.5586V51.84Z" fill="black"/>
<path d="M52.5186 51.84H43.5586V60.8H52.5186V51.84Z" fill="black"/>
<path d="M61.4786 51.84H52.5186V60.8H61.4786V51.84Z" fill="black"/>
<path d="M79.3986 51.84H70.4386V60.8H79.3986V51.84Z" fill="black"/>
<path d="M115.239 51.84H106.279V60.8H115.239V51.84Z" fill="black"/>
<path d="M124.199 51.84H115.239V60.8H124.199V51.84Z" fill="black"/>
<path d="M133.159 51.84H124.199V60.8H133.159V51.84Z" fill="black"/>
<path d="M151.079 51.84H142.119V60.8H151.079L151.079 51.84Z" fill="black"/>
<path d="M168.999 51.84H160.039V60.8H168.999V51.84Z" fill="black"/>
<path d="M186.919 51.84H177.959V60.8H186.919V51.84Z" fill="black"/>
<path d="M204.839 51.84H195.879V60.8H204.839V51.84Z" fill="black"/>
<path d="M213.799 51.84H204.839V60.8H213.799V51.84Z" fill="black"/>
<path d="M222.759 51.84H213.799V60.8H222.759V51.84Z" fill="black"/>
<path d="M240.679 51.84H231.719V60.8H240.679V51.84Z" fill="black"/>
<path d="M25.6386 60.8H16.6786V69.76H25.6386V60.8Z" fill="black"/>
<path d="M79.3986 60.8H70.4386V69.76H79.3986V60.8Z" fill="black"/>
<path d="M106.279 60.8H97.3186V69.76H106.279V60.8Z" fill="black"/>
<path d="M133.159 60.8H124.199V69.76H133.159V60.8Z" fill="black"/>
<path d="M151.079 60.8H142.119V69.76H151.079V60.8Z" fill="black"/>
<path d="M168.999 60.8H160.039V69.76H168.999V60.8Z" fill="black"/>
<path d="M186.919 60.8H177.959V69.76H186.919V60.8Z" fill="black"/>
<path d="M240.679 60.8H231.719V69.76H240.679V60.8Z" fill="black"/>
<path d="M25.6386 69.76H16.6786V78.72H25.6386V69.76Z" fill="black"/>
<path d="M34.5986 69.76L25.6386 69.76V78.72H34.5986V69.76Z" fill="black"/>
<path d="M43.5586 69.76H34.5986V78.72H43.5586V69.76Z" fill="black"/>
<path d="M52.5186 69.76H43.5586V78.72H52.5186V69.76Z" fill="black"/>
<path d="M61.4786 69.76H52.5186V78.72H61.4786V69.76Z" fill="black"/>
<path d="M70.4386 69.76L61.4786 69.76V78.72H70.4386L70.4386 69.76Z" fill="black"/>
<path d="M79.3986 69.76H70.4386L70.4386 78.72H79.3986V69.76Z" fill="black"/>
<path d="M97.3186 69.76L88.3586 69.76V78.72H97.3186V69.76Z" fill="black"/>
<path d="M115.239 69.76L106.279 69.76V78.72H115.239V69.76Z" fill="black"/>
<path d="M133.159 69.76H124.199V78.72H133.159V69.76Z" fill="black"/>
<path d="M151.079 69.76H142.119V78.72H151.079V69.76Z" fill="black"/>
<path d="M168.999 69.76H160.039V78.72H168.999V69.76Z" fill="black"/>
<path d="M186.919 69.76H177.959V78.72H186.919V69.76Z" fill="black"/>
<path d="M195.879 69.76L186.919 69.76V78.72H195.879V69.76Z" fill="black"/>
<path d="M204.839 69.76H195.879V78.72H204.839V69.76Z" fill="black"/>
<path d="M213.799 69.76H204.839V78.72H213.799V69.76Z" fill="black"/>
<path d="M222.759 69.76H213.799V78.72H222.759V69.76Z" fill="black"/>
<path d="M231.719 69.76L222.759 69.76V78.72H231.719V69.76Z" fill="black"/>
<path d="M240.679 69.76H231.719V78.72H240.679V69.76Z" fill="black"/>
<path d="M97.3186 78.72H88.3586V87.68H97.3186V78.72Z" fill="black"/>
<path d="M115.239 78.72H106.279V87.68H115.239V78.72Z" fill="black"/>
<path d="M124.199 78.72H115.239V87.68H124.199V78.72Z" fill="black"/>
<path d="M133.159 78.72H124.199V87.68H133.159V78.72Z" fill="black"/>
<path d="M151.079 78.72H142.119V87.68H151.079V78.72Z" fill="black"/>
<path d="M168.999 78.72H160.039V87.68H168.999V78.72Z" fill="black"/>
<path d="M25.6386 87.68H16.6786V96.64H25.6386V87.68Z" fill="black"/>
<path d="M43.5586 87.68H34.5986V96.64H43.5586V87.68Z" fill="black"/>
<path d="M70.4386 87.68H61.4786V96.64H70.4386V87.68Z" fill="black"/>
<path d="M79.3986 87.68H70.4386V96.64H79.3986V87.68Z" fill="black"/>
<path d="M133.159 87.68H124.199V96.64H133.159V87.68Z" fill="black"/>
<path d="M142.119 87.68H133.159V96.64H142.119V87.68Z" fill="black"/>
<path d="M160.039 87.68H151.079L151.079 96.64H160.039V87.68Z" fill="black"/>
<path d="M168.999 87.68H160.039V96.64H168.999V87.68Z" fill="black"/>
<path d="M177.959 87.68H168.999V96.64H177.959V87.68Z" fill="black"/>
<path d="M186.919 87.68H177.959V96.64H186.919V87.68Z" fill="black"/>
<path d="M222.759 87.68H213.799V96.64H222.759V87.68Z" fill="black"/>
<path d="M240.679 87.68H231.719V96.64H240.679V87.68Z" fill="black"/>
<path d="M25.6386 96.64H16.6786V105.6H25.6386V96.64Z" fill="black"/>
<path d="M70.4386 96.64H61.4786V105.6H70.4386V96.64Z" fill="black"/>
<path d="M97.3186 96.64H88.3586V105.6H97.3186V96.64Z" fill="black"/>
<path d="M106.279 96.64H97.3186V105.6H106.279V96.64Z" fill="black"/>
<path d="M151.079 96.64H142.119V105.6H151.079L151.079 96.64Z" fill="black"/>
<path d="M177.959 96.64H168.999V105.6H177.959V96.64Z" fill="black"/>
<path d="M186.919 96.64H177.959V105.6H186.919V96.64Z" fill="black"/>
<path d="M204.839 96.64H195.879V105.6H204.839V96.64Z" fill="black"/>
<path d="M213.799 96.64H204.839V105.6H213.799V96.64Z" fill="black"/>
<path d="M222.759 96.64H213.799V105.6H222.759V96.64Z" fill="black"/>
<path d="M231.719 96.64H222.759V105.6H231.719V96.64Z" fill="black"/>
<path d="M43.5586 105.6H34.5986V114.56H43.5586V105.6Z" fill="black"/>
<path d="M61.4786 105.6H52.5186V114.56H61.4786V105.6Z" fill="black"/>
<path d="M79.3986 105.6H70.4386L70.4386 114.56H79.3986V105.6Z" fill="black"/>
<path d="M88.3586 105.6H79.3986V114.56H88.3586V105.6Z" fill="black"/>
<path d="M97.3186 105.6H88.3586V114.56H97.3186V105.6Z" fill="black"/>
<path d="M133.159 105.6H124.199V114.56H133.159V105.6Z" fill="black"/>
<path d="M142.119 105.6H133.159V114.56H142.119V105.6Z" fill="black"/>
<path d="M204.839 105.6H195.879V114.56H204.839V105.6Z" fill="black"/>
<path d="M213.799 105.6H204.839V114.56H213.799V105.6Z" fill="black"/>
<path d="M25.6386 114.56H16.6786V123.52H25.6386V114.56Z" fill="black"/>
<path d="M34.5986 114.56H25.6386V123.52H34.5986V114.56Z" fill="black"/>
<path d="M52.5186 114.56H43.5586V123.52H52.5186V114.56Z" fill="black"/>
<path d="M61.4786 114.56H52.5186V123.52H61.4786V114.56Z" fill="black"/>
<path d="M70.4386 114.56H61.4786V123.52H70.4386L70.4386 114.56Z" fill="black"/>
<path d="M106.279 114.56H97.3186V123.52H106.279V114.56Z" fill="black"/>
<path d="M124.199 114.56H115.239V123.52H124.199V114.56Z" fill="black"/>
<path d="M151.079 114.56H142.119V123.52H151.079V114.56Z" fill="black"/>
<path d="M168.999 114.56H160.039V123.52H168.999V114.56Z" fill="black"/>
<path d="M195.879 114.56H186.919V123.52H195.879V114.56Z" fill="black"/>
<path d="M222.759 114.56H213.799V123.52H222.759V114.56Z" fill="black"/>
<path d="M240.679 114.56H231.719V123.52H240.679V114.56Z" fill="black"/>
<path d="M25.6386 123.52H16.6786V132.48H25.6386V123.52Z" fill="black"/>
<path d="M34.5986 123.52H25.6386V132.48H34.5986V123.52Z" fill="black"/>
<path d="M52.5186 123.52H43.5586V132.48H52.5186V123.52Z" fill="black"/>
<path d="M79.3986 123.52H70.4386L70.4386 132.48H79.3986V123.52Z" fill="black"/>
<path d="M88.3586 123.52H79.3986V132.48H88.3586V123.52Z" fill="black"/>
<path d="M97.3186 123.52H88.3586V132.48H97.3186V123.52Z" fill="black"/>
<path d="M106.279 123.52H97.3186V132.48H106.279V123.52Z" fill="black"/>
<path d="M124.199 123.52H115.239V132.48H124.199V123.52Z" fill="black"/>
<path d="M168.999 123.52H160.039V132.48H168.999V123.52Z" fill="black"/>
<path d="M177.959 123.52H168.999V132.48H177.959V123.52Z" fill="black"/>
<path d="M186.919 123.52H177.959V132.48H186.919V123.52Z" fill="black"/>
<path d="M195.879 123.52H186.919V132.48H195.879V123.52Z" fill="black"/>
<path d="M240.679 123.52H231.719V132.48H240.679V123.52Z" fill="black"/>
<path d="M25.6386 132.48H16.6786V141.44H25.6386V132.48Z" fill="black"/>
<path d="M43.5586 132.48H34.5986V141.44H43.5586V132.48Z" fill="black"/>
<path d="M70.4386 132.48H61.4786V141.44H70.4386L70.4386 132.48Z" fill="black"/>
<path d="M88.3586 132.48H79.3986V141.44H88.3586V132.48Z" fill="black"/>
<path d="M97.3186 132.48H88.3586V141.44H97.3186V132.48Z" fill="black"/>
<path d="M115.239 132.48H106.279V141.44H115.239V132.48Z" fill="black"/>
<path d="M133.159 132.48H124.199V141.44H133.159V132.48Z" fill="black"/>
<path d="M142.119 132.48H133.159V141.44H142.119V132.48Z" fill="black"/>
<path d="M160.039 132.48H151.079V141.44H160.039V132.48Z" fill="black"/>
<path d="M168.999 132.48H160.039V141.44H168.999V132.48Z" fill="black"/>
<path d="M186.919 132.48H177.959V141.44H186.919V132.48Z" fill="black"/>
<path d="M204.839 132.48H195.879V141.44H204.839V132.48Z" fill="black"/>
<path d="M213.799 132.48H204.839V141.44H213.799V132.48Z" fill="black"/>
<path d="M231.719 132.48H222.759V141.44H231.719V132.48Z" fill="black"/>
<path d="M240.679 132.48H231.719V141.44H240.679V132.48Z" fill="black"/>
<path d="M25.6386 141.44H16.6786V150.4H25.6386V141.44Z" fill="black"/>
<path d="M61.4786 141.44H52.5186V150.4H61.4786V141.44Z" fill="black"/>
<path d="M70.4386 141.44H61.4786V150.4H70.4386V141.44Z" fill="black"/>
<path d="M79.3986 141.44H70.4386V150.4H79.3986V141.44Z" fill="black"/>
<path d="M115.239 141.44H106.279V150.4H115.239V141.44Z" fill="black"/>
<path d="M124.199 141.44H115.239V150.4H124.199V141.44Z" fill="black"/>
<path d="M133.159 141.44H124.199V150.4H133.159V141.44Z" fill="black"/>
<path d="M142.119 141.44H133.159V150.4H142.119V141.44Z" fill="black"/>
<path d="M186.919 141.44H177.959V150.4H186.919V141.44Z" fill="black"/>
<path d="M195.879 141.44H186.919V150.4H195.879V141.44Z" fill="black"/>
<path d="M204.839 141.44H195.879V150.4H204.839V141.44Z" fill="black"/>
<path d="M213.799 141.44H204.839V150.4H213.799V141.44Z" fill="black"/>
<path d="M43.5586 150.4H34.5986V159.36H43.5586V150.4Z" fill="black"/>
<path d="M88.3586 150.4L79.3986 150.4V159.36H88.3586V150.4Z" fill="black"/>
<path d="M97.3186 150.4H88.3586V159.36H97.3186V150.4Z" fill="black"/>
<path d="M106.279 150.4L97.3186 150.4V159.36H106.279V150.4Z" fill="black"/>
<path d="M115.239 150.4H106.279V159.36H115.239V150.4Z" fill="black"/>
<path d="M133.159 150.4H124.199V159.36H133.159V150.4Z" fill="black"/>
<path d="M151.079 150.4L142.119 150.4V159.36H151.079V150.4Z" fill="black"/>
<path d="M168.999 150.4H160.039V159.36H168.999V150.4Z" fill="black"/>
<path d="M204.839 150.4H195.879V159.36H204.839V150.4Z" fill="black"/>
<path d="M213.799 150.4H204.839V159.36H213.799V150.4Z" fill="black"/>
<path d="M34.5986 159.36H25.6386V168.32H34.5986V159.36Z" fill="black"/>
<path d="M79.3986 159.36H70.4386V168.32H79.3986V159.36Z" fill="black"/>
<path d="M106.279 159.36H97.3186V168.32H106.279V159.36Z" fill="black"/>
<path d="M133.159 159.36H124.199V168.32H133.159V159.36Z" fill="black"/>
<path d="M142.119 159.36H133.159V168.32H142.119V159.36Z" fill="black"/>
<path d="M151.079 159.36H142.119V168.32H151.079V159.36Z" fill="black"/>
<path d="M168.999 159.36H160.039V168.32H168.999V159.36Z" fill="black"/>
<path d="M177.959 159.36H168.999V168.32H177.959V159.36Z" fill="black"/>
<path d="M186.919 159.36H177.959V168.32H186.919V159.36Z" fill="black"/>
<path d="M195.879 159.36H186.919V168.32H195.879V159.36Z" fill="black"/>
<path d="M204.839 159.36H195.879V168.32H204.839V159.36Z" fill="black"/>
<path d="M213.799 159.36H204.839V168.32H213.799V159.36Z" fill="black"/>
<path d="M222.759 159.36H213.799V168.32H222.759V159.36Z" fill="black"/>
<path d="M231.719 159.36H222.759V168.32H231.719V159.36Z" fill="black"/>
<path d="M240.679 159.36H231.719V168.32H240.679V159.36Z" fill="black"/>
<path d="M115.239 168.32H106.279V177.28H115.239V168.32Z" fill="black"/>
<path d="M124.199 168.32H115.239V177.28H124.199V168.32Z" fill="black"/>
<path d="M151.079 168.32H142.119V177.28H151.079V168.32Z" fill="black"/>
<path d="M160.039 168.32H151.079V177.28H160.039V168.32Z" fill="black"/>
<path d="M168.999 168.32H160.039V177.28H168.999V168.32Z" fill="black"/>
<path d="M204.839 168.32H195.879V177.28H204.839V168.32Z" fill="black"/>
<path d="M213.799 168.32H204.839V177.28H213.799V168.32Z" fill="black"/>
<path d="M222.759 168.32H213.799V177.28H222.759V168.32Z" fill="black"/>
<path d="M231.719 168.32H222.759V177.28H231.719V168.32Z" fill="black"/>
<path d="M240.679 168.32H231.719V177.28H240.679V168.32Z" fill="black"/>
<path d="M25.6386 177.28H16.6786V186.24H25.6386V177.28Z" fill="black"/>
<path d="M34.5986 177.28H25.6386V186.24H34.5986V177.28Z" fill="black"/>
<path d="M43.5586 177.28H34.5986V186.24H43.5586V177.28Z" fill="black"/>
<path d="M52.5186 177.28H43.5586V186.24H52.5186V177.28Z" fill="black"/>
<path d="M61.4786 177.28H52.5186V186.24H61.4786V177.28Z" fill="black"/>
<path d="M70.4386 177.28H61.4786V186.24H70.4386V177.28Z" fill="black"/>
<path d="M79.3986 177.28H70.4386V186.24H79.3986V177.28Z" fill="black"/>
<path d="M106.279 177.28H97.3186V186.24H106.279V177.28Z" fill="black"/>
<path d="M124.199 177.28H115.239V186.24H124.199V177.28Z" fill="black"/>
<path d="M133.159 177.28H124.199V186.24H133.159V177.28Z" fill="black"/>
<path d="M142.119 177.28H133.159V186.24H142.119V177.28Z" fill="black"/>
<path d="M168.999 177.28H160.039V186.24H168.999V177.28Z" fill="black"/>
<path d="M186.919 177.28H177.959V186.24H186.919V177.28Z" fill="black"/>
<path d="M204.839 177.28H195.879V186.24H204.839V177.28Z" fill="black"/>
<path d="M231.719 177.28H222.759V186.24H231.719V177.28Z" fill="black"/>
<path d="M25.6386 186.24H16.6786V195.2H25.6386V186.24Z" fill="black"/>
<path d="M79.3986 186.24H70.4386L70.4386 195.2H79.3986V186.24Z" fill="black"/>
<path d="M97.3186 186.24H88.3586V195.2H97.3186V186.24Z" fill="black"/>
<path d="M106.279 186.24H97.3186V195.2H106.279V186.24Z" fill="black"/>
<path d="M115.239 186.24H106.279V195.2H115.239V186.24Z" fill="black"/>
<path d="M142.119 186.24H133.159V195.2H142.119V186.24Z" fill="black"/>
<path d="M168.999 186.24H160.039V195.2H168.999V186.24Z" fill="black"/>
<path d="M204.839 186.24H195.879V195.2H204.839V186.24Z" fill="black"/>
<path d="M240.679 186.24H231.719V195.2H240.679V186.24Z" fill="black"/>
<path d="M25.6386 195.2H16.6786V204.16H25.6386V195.2Z" fill="black"/>
<path d="M43.5586 195.2H34.5986V204.16H43.5586V195.2Z" fill="black"/>
<path d="M52.5186 195.2H43.5586V204.16H52.5186V195.2Z" fill="black"/>
<path d="M61.4786 195.2H52.5186V204.16H61.4786V195.2Z" fill="black"/>
<path d="M79.3986 195.2H70.4386V204.16H79.3986V195.2Z" fill="black"/>
<path d="M151.079 195.2H142.119V204.16H151.079V195.2Z" fill="black"/>
<path d="M168.999 195.2H160.039V204.16H168.999V195.2Z" fill="black"/>
<path d="M177.959 195.2H168.999V204.16H177.959V195.2Z" fill="black"/>
<path d="M186.919 195.2H177.959V204.16H186.919V195.2Z" fill="black"/>
<path d="M195.879 195.2H186.919V204.16H195.879V195.2Z" fill="black"/>
<path d="M204.839 195.2H195.879V204.16H204.839V195.2Z" fill="black"/>
<path d="M213.799 195.2H204.839V204.16H213.799V195.2Z" fill="black"/>
<path d="M222.759 195.2H213.799V204.16H222.759V195.2Z" fill="black"/>
<path d="M240.679 195.2H231.719V204.16H240.679V195.2Z" fill="black"/>
<path d="M25.6386 204.16H16.6786V213.12H25.6386V204.16Z" fill="black"/>
<path d="M43.5586 204.16H34.5986V213.12H43.5586V204.16Z" fill="black"/>
<path d="M52.5186 204.16H43.5586V213.12H52.5186V204.16Z" fill="black"/>
<path d="M61.4786 204.16H52.5186V213.12H61.4786V204.16Z" fill="black"/>
<path d="M79.3986 204.16H70.4386V213.12H79.3986V204.16Z" fill="black"/>
<path d="M124.199 204.16H115.239V213.12H124.199V204.16Z" fill="black"/>
<path d="M151.079 204.16H142.119V213.12H151.079V204.16Z" fill="black"/>
<path d="M160.039 204.16H151.079V213.12H160.039V204.16Z" fill="black"/>
<path d="M177.959 204.16H168.999V213.12H177.959V204.16Z" fill="black"/>
<path d="M186.919 204.16H177.959V213.12H186.919V204.16Z" fill="black"/>
<path d="M204.839 204.16H195.879V213.12H204.839V204.16Z" fill="black"/>
<path d="M222.759 204.16H213.799V213.12H222.759V204.16Z" fill="black"/>
<path d="M231.719 204.16H222.759V213.12H231.719V204.16Z" fill="black"/>
<path d="M25.6386 213.12H16.6786V222.08H25.6386V213.12Z" fill="black"/>
<path d="M43.5586 213.12H34.5986V222.08H43.5586V213.12Z" fill="black"/>
<path d="M52.5186 213.12H43.5586V222.08H52.5186V213.12Z" fill="black"/>
<path d="M61.4786 213.12H52.5186V222.08H61.4786V213.12Z" fill="black"/>
<path d="M79.3986 213.12H70.4386V222.08H79.3986V213.12Z" fill="black"/>
<path d="M97.3186 213.12H88.3586V222.08H97.3186V213.12Z" fill="black"/>
<path d="M115.239 213.12H106.279V222.08H115.239V213.12Z" fill="black"/>
<path d="M186.919 213.12H177.959V222.08H186.919V213.12Z" fill="black"/>
<path d="M222.759 213.12H213.799V222.08H222.759V213.12Z" fill="black"/>
<path d="M240.679 213.12H231.719V222.08H240.679V213.12Z" fill="black"/>
<path d="M25.6386 222.08H16.6786V231.04H25.6386V222.08Z" fill="black"/>
<path d="M79.3986 222.08H70.4386V231.04H79.3986V222.08Z" fill="black"/>
<path d="M124.199 222.08H115.239V231.04H124.199V222.08Z" fill="black"/>
<path d="M160.039 222.08H151.079V231.04H160.039V222.08Z" fill="black"/>
<path d="M168.999 222.08H160.039V231.04H168.999V222.08Z" fill="black"/>
<path d="M177.959 222.08H168.999V231.04H177.959V222.08Z" fill="black"/>
<path d="M204.839 222.08H195.879V231.04H204.839V222.08Z" fill="black"/>
<path d="M213.799 222.08H204.839V231.04H213.799V222.08Z" fill="black"/>
<path d="M222.759 222.08H213.799V231.04H222.759V222.08Z" fill="black"/>
<path d="M25.6386 231.04H16.6786V240H25.6386V231.04Z" fill="black"/>
<path d="M34.5986 231.04H25.6386V240H34.5986V231.04Z" fill="black"/>
<path d="M43.5586 231.04H34.5986V240H43.5586V231.04Z" fill="black"/>
<path d="M52.5186 231.04H43.5586V240H52.5186V231.04Z" fill="black"/>
<path d="M61.4786 231.04H52.5186V240H61.4786V231.04Z" fill="black"/>
<path d="M70.4386 231.04H61.4786V240H70.4386L70.4386 231.04Z" fill="black"/>
<path d="M79.3986 231.04H70.4386L70.4386 240H79.3986V231.04Z" fill="black"/>
<path d="M97.3186 231.04H88.3586V240H97.3186V231.04Z" fill="black"/>
<path d="M106.279 231.04H97.3186V240H106.279V231.04Z" fill="black"/>
<path d="M115.239 231.04H106.279V240H115.239V231.04Z" fill="black"/>
<path d="M142.119 231.04H133.159V240H142.119V231.04Z" fill="black"/>
<path d="M151.079 231.04H142.119V240H151.079L151.079 231.04Z" fill="black"/>
<path d="M160.039 231.04H151.079L151.079 240H160.039V231.04Z" fill="black"/>
<path d="M168.999 231.04H160.039V240H168.999V231.04Z" fill="black"/>
<path d="M186.919 231.04H177.959V240H186.919V231.04Z" fill="black"/>
<path d="M195.879 231.04H186.919V240H195.879V231.04Z" fill="black"/>
<path d="M204.839 231.04H195.879V240H204.839V231.04Z" fill="black"/>
<path d="M222.759 231.04H213.799V240H222.759V231.04Z" fill="black"/>
<path d="M240.679 231.04H231.719V240H240.679V231.04Z" fill="black"/>
<path d="M81.3778 193V62.0909H133.026C142.955 62.0909 151.413 63.9872 158.402 67.7798C165.391 71.5298 170.717 76.75 174.382 83.4403C178.089 90.0881 179.943 97.7585 179.943 106.452C179.943 115.145 178.068 122.815 174.318 129.463C170.568 136.111 165.135 141.288 158.018 144.996C150.945 148.703 142.379 150.557 132.322 150.557H99.4034V128.376H127.848C133.175 128.376 137.564 127.46 141.016 125.628C144.51 123.753 147.109 121.175 148.814 117.893C150.561 114.57 151.435 110.756 151.435 106.452C151.435 102.105 150.561 98.3125 148.814 95.0739C147.109 91.7926 144.51 89.2571 141.016 87.4673C137.521 85.6349 133.089 84.7188 127.72 84.7188H109.055V193H81.3778Z" fill="white"/>
</g>
<defs>
<clipPath id="clip0_58_388">
<rect width="256" height="256" fill="white" transform="translate(0.678589)"/>
</clipPath>
</defs>
</svg>
